<svg width="49" height="98" xmlns="http://www.w3.org/2000/svg">
 <g>
 <g>
 <animateTransform 
 attributeName="transform" 
 type="rotate" 
 form="0 30 30" 
 to="360 30 30" 
 dur="2s" 
 repeatCount="infinite" />
  <path id="helixe" d="m39.825359,39.628075c-3.283,-3.513 -6.472,-6.296 -9.019,-8.018c0.119,-0.962 -0.116,-1.89 -0.638,-2.629c1.184,-2.848 2.307,-6.925 3.083,-11.662c1.479,-8.949 1.131,-16.465 -0.754,-16.768c-1.905,-0.32 -4.639,6.69 -6.106,15.645c-0.74,4.505 -0.992,8.528 -0.839,11.559c-1.124,0.501 -2.012,1.484 -2.223,2.784c0,0.009 0.002,0.015 0,0.02c-2.92,0.853 -6.67,2.426 -10.726,4.619c-7.978,4.331 -13.703,9.213 -12.775,10.91c0.913,1.677 8.121,-0.456 16.088,-4.797c4.155,-2.248 7.593,-4.619 9.886,-6.643c0.218,0.08 0.411,0.209 0.652,0.248c0.342,0.05 0.664,-0.005 0.992,-0.039c1.525,2.664 4.046,6.027 7.297,9.51c6.167,6.643 12.329,10.969 13.728,9.665c1.41,-1.317 -2.45,-7.761 -8.646,-14.404zm-13.002,-6.981c-0.824,-0.133 -1.385,-0.917 -1.25,-1.741c0.128,-0.823 0.917,-1.389 1.745,-1.25c0.824,0.135 1.39,0.913 1.251,1.737c-0.134,0.823 -0.913,1.388 -1.746,1.254z" fill=" #0c5c28"/>
 </g>

  <g id="svg_5">
   <path d="m24.927977,35.132474l-4.075,62.399515l12.402,0c-1.357543,-20.427457 -2.715087,-40.854913 -4.07263,-61.28237l-4.25437,-2.633445l0,1.5163z" fill=" #0c5c28" id="svg_1"/>
   <path fill=" #0c5c28" stroke="null" stroke-width="null" stroke-opacity="null" fill-opacity="null" d="m29.278501,36.438446c-0.075815,-2.956784 -0.075815,-3.032599 -0.075815,-3.0326c0.000001,0 -4.245639,0 -4.245639,0c0,0 0,1.06141 0,1.06141c0,0 4.397269,4.927974 4.321454,1.97119z" id="svg_4"/>
  </g>
 </g>
</svg>